<?xml version="1.0" encoding="UTF-8"?><svg id="logo" xmlns="http://www.w3.org/2000/svg" viewBox="0 0 1000 170"><path d="m932.5034,111.7111c10.9118,10.9115,10.9118,28.5773,0,39.4887l-10.5212,10.6166c-10.9118,10.9115-28.577,10.9115-39.4887,0l-2.1785-2.1785c-10.9118-10.9114-10.9118-28.5772,0-39.4886l.5902-.5804c4.832-4.8421,10.7774-8.4476,17.2371-10.7783,14.0211-5.0347,17.3289-10.9408,17.3533-16.7906-.0244-5.8498-3.3322-11.756-17.3533-16.7906-6.4597-2.3307-12.4051-5.9361-17.2371-10.7783l-.5902-.5804c-10.9118-10.9114-10.9118-28.5771,0-39.4886l2.1785-2.1785c10.9118-10.9115,28.577-10.9115,39.4887,0l10.5212,10.6166c10.9118,10.9114,10.9118,28.5771,0,39.4887-5.4477,5.4482-8.1794,12.5782-8.1871,19.7111.0077,7.1328,2.7393,14.2629,8.1871,19.7111Zm37.8705-49.1741c-16.0096,0-33.9272,20.122-33.9272,29.463s17.9176,29.463,33.9272,29.463,29.626-13.1891,29.626-29.463-13.6182-29.463-29.626-29.463Z" style="fill:#ff5640;"/><path d="m371.9007,46.8862c-.2875-1.9157-.5749-4.3581-.5749-10.7278V0S400.3484,0,400.3484,0v151.0037h-26.9147v-6.0342c0-5.0771.2395-8.5733.4781-11.0635h-.8134c-7.5673,13.3141-22.8925,20.7377-40.8038,20.7377-34.0039,0-57.662-25.766-57.662-62.4995s24.4725-62.499,58.8587-62.499c16.2355,0,31.3691,6.5133,37.4992,17.2411h.9102Zm-67.6237,44.8749c0,21.5039,14.416,36.5896,34.0039,36.5896,19.8744,0,34.1467-15.1815,34.1467-36.5896s-14.5588-36.4458-34.1467-36.4458-34.0039,14.9423-34.0039,36.4458Zm218.9449-42.1774l.0077.0809h-.8144c-5.9864-11.2067-20.2586-19.6836-39.1759-19.6836-34.0509,0-59.0024,25.8138-59.0024,62.3554s23.6102,62.3073,57.8057,62.3073c18.7735,0,33.8114-8.4766,40.3726-21.2637h.8144c-.2395,2.7297-.4312,5.9864-.4312,11.2063v6.4175h26.819V33.6207h-26.819v5.2203c0,6.1914.2328,8.6986.4235,10.7427Zm-35.5283,78.9587c-19.54,0-33.9072-15.2294-33.9072-36.6371s14.3671-36.3021,33.9072-36.3021,34.0509,14.9902,34.0509,36.3021-14.2234,36.6371-34.0509,36.6371Zm311.911-78.9587l.0077.0809h-.8144c-5.9864-11.2067-20.2586-19.6836-39.1759-19.6836-34.0509,0-59.0024,25.8138-59.0024,62.3554s23.6102,62.3073,57.8057,62.3073c18.7735,0,33.8114-8.4766,40.3726-21.2637h.8144c-.2395,2.7297-.4312,5.9864-.4312,11.2063v6.4175h26.819V33.6207h-26.819v5.2203c0,6.1914.2328,8.6986.4235,10.7427Zm-35.5283,78.9587c-19.54,0-33.9072-15.2294-33.9072-36.6371s14.3671-36.3021,33.9072-36.3021,34.0509,14.9902,34.0509,36.3021-14.2234,36.6371-34.0509,36.6371ZM197.0219,29.9809c-31.7523,0-54.3574,21.0725-54.3574,50.1908v70.832h29.5486v-68.7248c0-15.4691,10.6802-25.2391,24.9046-25.2391s24.8078,9.8658,24.8078,25.2391v68.7248h29.5496v-70.5446c0-29.3578-22.7009-50.4782-54.4533-50.4782Zm-134.6188,0c34.4346,0,57.6137,26.197,57.6137,62.3555,0,3.065-.1916,6.8959-.8135,9.6266H30.4114c3.3525,16.7136,14.5112,26.6273,33.3328,26.6273,13.6492,0,25.4785-3.4483,34.482-12.7393l13.6974,20.4503c-10.4886,11.7332-28.3042,18.3424-49.0894,18.3424C25.9574,154.6436,0,128.7339,0,92.3363S26.1011,29.9809,62.4031,29.9809Zm-.6226,25.6223c-16.7142,0-28.1604,10.3925-31.3213,26.9631h60.7749c-2.1551-16.0438-12.7393-26.9631-29.4536-26.9631Zm602.0977-21.9825s-28.2562,77.7281-29.4538,81.7034c-.5249,1.8127-2.0591,2.7223-3.5915,2.7296-1.5324-.0073-3.0667-.9169-3.5915-2.7296-1.1977-3.9753-29.4538-81.7034-29.4538-81.7034h-32.0877l48.9939,117.383h32.2783l48.9939-117.383h-32.0877Z" style="fill:#192b37; fill-rule:evenodd;"/></svg>